<svg width="79" height="78" viewBox="0 0 79 78" fill="none" xmlns="http://www.w3.org/2000/svg">
<g id="Frame" clip-path="url(#clip0_24_1620)">
<g id="Group">
<g id="Group_2">
<g id="Group_3">
<g id="Group_4">
<path id="Vector" d="M55.7196 33.436L41.6711 49.1862L48.5456 52.6185L55.7196 33.436Z" fill="#00B6AA"/>
<path id="Vector_2" d="M72.7504 60.8642L69.8312 91.8381H51.0413L55.2624 77.6144L49.0344 77.5767L41.9077 91.9003H24.3386L42.0451 60.1189" fill="#171766"/>
<g id="Group_5">
<path id="Vector_3" d="M55.7196 33.4363L41.6711 61.8099C41.6711 61.8099 65.475 68.9236 78.8162 63.0138L74.2572 33.9646L55.7196 33.4363Z" fill="#171766"/>
<g id="Group_6">
<path id="Vector_4" d="M70.8944 26.5601L62.6325 27.4129L62.1572 31.9132C64.7948 31.4679 67.4369 31.0396 70.0926 30.6471L70.8944 26.5601Z" fill="#171766"/>
<path id="Vector_5" d="M71.4147 33.8058L70.775 39.3986L64.6258 44.7764L63.6235 45.6538L63.351 45.0783L60.5354 39.1458L60.7561 33.1416H68.7568L71.4147 33.8058Z" fill="white"/>
<path id="Vector_6" d="M62.1593 31.9132L61.925 34.1322L65.4344 37.2041L69.3671 34.3775L70.0969 30.6489C67.4368 31.0395 64.7947 31.4678 62.1593 31.9132Z" fill="#F2583E"/>
</g>
<g id="Group_7">
<path id="Vector_7" d="M75.7531 22.4075C76.624 17.9747 73.0405 13.7897 67.7489 13.0601C62.4574 12.3305 57.4618 15.3326 56.5909 19.7654C55.7199 24.1982 59.3035 28.3832 64.595 29.1128C69.8866 29.8424 74.8822 26.8403 75.7531 22.4075Z" fill="#F2583E"/>
<path id="Vector_8" d="M70.3981 25.3645C70.5935 24.3596 69.7793 23.4123 68.5798 23.2487C67.3802 23.0851 66.2494 23.7671 66.0541 24.772C65.8588 25.7769 66.6729 26.7242 67.8725 26.8878C69.072 27.0514 70.2028 26.3694 70.3981 25.3645Z" fill="#F6EF97"/>
<path id="Vector_9" d="M63.5266 13.3364C62.5715 13.3968 61.6143 13.4572 60.657 13.5176C60.4002 13.5346 60.1367 13.5515 59.9047 13.644C59.6727 13.7365 59.4744 13.9251 59.4722 14.1403C59.4699 14.3742 59.6839 14.5667 59.9069 14.7063C60.5714 15.1252 61.4431 15.3101 62.2652 15.2045C61.9476 15.5687 61.2606 15.7913 61.3169 16.2404C61.3597 16.5838 61.835 16.7555 62.2427 16.8065C62.9522 16.8952 63.6865 16.831 64.3577 16.6197C64.2474 16.9706 64.1437 17.3631 64.3555 17.6782C64.565 17.9933 65.0245 18.1292 65.4547 18.1745C67.0922 18.3462 68.6396 17.5895 70.0587 16.8838C70.2389 16.7933 70.4821 16.7065 70.642 16.8197C70.7344 16.8838 70.7592 16.9895 70.7772 17.0895C71.034 18.5009 70.6421 19.935 70.6533 21.3615C70.6578 22.071 70.802 22.8446 71.4259 23.3239C71.8922 23.6824 72.5499 23.8107 73.1806 23.8598C73.8225 23.9088 74.5005 23.8843 75.0613 23.6183C75.4285 23.4447 75.7213 23.1767 75.9713 22.8918C76.7935 21.9521 77.1967 20.7218 76.8498 19.5935C76.7349 19.2217 76.5367 18.8576 76.2101 18.5877" fill="#00B6AA"/>
<path id="Vector_10" d="M74.8452 27.4128C76.8592 27.4128 78.4919 26.0451 78.4919 24.3579C78.4919 22.6707 76.8592 21.303 74.8452 21.303C72.8312 21.303 71.1985 22.6707 71.1985 24.3579C71.1985 26.0451 72.8312 27.4128 74.8452 27.4128Z" fill="#F2583E"/>
<g id="Group_8">
<path id="Vector_11" d="M78.0459 13.2931L77.4873 15.1838L76.5458 18.3595L63.5042 13.2931L65.3309 11.5345L67.741 9.21167C67.741 9.21167 74.3091 9.6117 78.0459 13.2931Z" fill="#171766"/>
<path id="Vector_12" d="M77.4873 15.1837L76.5458 18.3594L63.5042 13.293L65.3309 11.5344L77.4873 15.1837Z" fill="#00B6AA"/>
<path id="Vector_13" d="M60.389 11.1458L81.4223 19.4218C81.4223 19.4218 79.6001 22.5654 67.741 17.1556C59.6029 13.444 60.389 11.1458 60.389 11.1458Z" fill="#171766"/>
</g>
<path id="Vector_14" d="M57.9044 17.7349C57.9044 17.7349 56.7557 19.8501 58.5238 20.3294C60.292 20.8087 61.7245 18.9557 61.7245 18.9557C61.7245 18.9557 59.5892 20.3332 58.4811 19.5482C57.6612 18.9689 57.9044 17.7349 57.9044 17.7349Z" fill="#171766"/>
<path id="Vector_15" d="M64.7069 20.1992C64.7069 20.1992 63.5582 22.3145 65.3263 22.7937C67.0945 23.273 68.5271 21.4201 68.5271 21.4201C68.5271 21.4201 66.3918 22.7975 65.2835 22.0125C64.4614 21.4333 64.7069 20.1992 64.7069 20.1992Z" fill="#171766"/>
<path id="Vector_16" d="M63.7158 18.0178L59.4722 21.2614L61.594 22.5993L64.146 18.3594L63.7158 18.0178Z" fill="#FFB459"/>
<path id="Vector_17" d="M72.9983 25.5864L72.7505 23.4504L76.7463 22.3164V22.873L73.4285 23.758L74.1042 25.7921L72.9983 25.5864Z" fill="#171766"/>
</g>
<path id="Vector_18" d="M65.4345 37.2024L63.2158 38.8629L60.1277 32.8398L62.1594 31.9133L65.4345 37.2024Z" fill="#00B6AA"/>
<path id="Vector_19" d="M66.9029 39.3986L65.4343 37.2022L69.759 32.3604L72.0182 33.8397L66.9029 39.3986Z" fill="#00B6AA"/>
<path id="Vector_20" d="M65.9749 37.2024L64.6257 44.7765L63.6234 45.6539L63.3508 45.0784L65.0582 37.2024H65.9749Z" fill="#00B6AA"/>
</g>
<g id="Group_9">
<path id="Vector_21" d="M59.7085 26.4506C59.7085 26.4506 55.0573 26.8903 52.9647 28.5243C52.1539 29.1602 51.6245 31.6812 51.0321 35.372C51.0299 35.3776 51.0299 35.3833 51.0276 35.389C50.0929 41.2007 48.9892 49.8994 46.3448 58.7019C42.0134 73.1085 31.258 78.2636 31.258 78.2636C23.8272 77.9636 18.3402 76.5144 14.3151 74.3973C3.55294 68.7384 3.24886 58.3113 4.22417 52.3505C2.7826 49.856 3.28265 46.235 3.40653 46.2067C9.5174 44.8651 15.7522 47.4426 20.4305 50.3296C22.068 51.341 23.5163 52.3901 24.6989 53.3204C26.5751 54.7978 27.7937 55.9791 28.0663 56.2451V56.247C28.1045 56.2847 28.1226 56.3036 28.1226 56.3036L24.4669 59.4038L26.181 62.6323C26.181 62.6323 47.3291 28.6942 51.0344 26.2449C56.7466 24.358 58.6094 24.7712 58.6094 24.7712L59.7085 26.4506Z" fill="#F6EF97"/>
<g id="Group_10">
<path id="Vector_22" d="M44.8891 38.4061C45.7899 37.6515 45.7899 36.4281 44.8891 35.6735C43.9884 34.919 42.528 34.919 41.6273 35.6735C40.7265 36.4281 40.7265 37.6515 41.6273 38.4061C42.528 39.1606 43.9884 39.1606 44.8891 38.4061Z" fill="#FFB459"/>
<path id="Vector_23" d="M48.0202 34.2754C48.921 33.5209 48.921 32.2975 48.0202 31.5429C47.1195 30.7883 45.6591 30.7883 44.7584 31.5429C43.8576 32.2975 43.8576 33.5209 44.7584 34.2754C45.6591 35.03 47.1195 35.03 48.0202 34.2754Z" fill="#FFB459"/>
<path id="Vector_24" d="M42.426 41.8126C42.7173 40.7737 41.9482 39.7337 40.7081 39.4897C39.468 39.2456 38.2265 39.89 37.9352 40.9288C37.6439 41.9677 38.413 43.0077 39.6531 43.2517C40.8932 43.4958 42.1346 42.8515 42.426 41.8126Z" fill="#FFB459"/>
<path id="Vector_25" d="M39.3521 46.1535C39.6461 45.1152 38.8797 44.0738 37.6402 43.8275C36.4008 43.5812 35.1576 44.2232 34.8636 45.2616C34.5696 46.2999 35.3361 47.3413 36.5755 47.5876C37.815 47.8338 39.0581 47.1918 39.3521 46.1535Z" fill="#FFB459"/>
<path id="Vector_26" d="M36.2784 50.4867C36.5724 49.4484 35.8059 48.407 34.5665 48.1607C33.327 47.9144 32.0839 48.5565 31.7899 49.5948C31.4959 50.6331 32.2623 51.6745 33.5018 51.9208C34.7412 52.1671 35.9844 51.525 36.2784 50.4867Z" fill="#FFB459"/>
<path id="Vector_27" d="M33.2011 54.8109C33.4924 53.772 32.7233 52.732 31.4832 52.488C30.2431 52.2439 29.0017 52.8882 28.7104 53.9271C28.419 54.9659 29.1882 56.006 30.4282 56.25C31.6683 56.4941 32.9098 55.8497 33.2011 54.8109Z" fill="#FFB459"/>
</g>
<path id="Vector_28" d="M47.0183 29.2357L53.0391 31.3453L54.3455 30.2905L47.9351 28.0564" fill="#F2583E"/>
<path id="Vector_29" d="M51.0277 35.3889C50.0929 41.2006 48.9892 49.8993 46.3448 58.7018C42.0134 73.1085 31.258 78.2635 31.258 78.2635C31.258 78.2635 25.0773 76.6615 22.6401 74.3972L30.6183 75.4822C30.6183 75.4822 48.7257 47.0916 51.0277 35.3889Z" fill="#FFB459"/>
<path id="Vector_30" d="M20.4306 50.3296C18.2615 52.5656 16.3965 55.0035 15.045 57.649C13.2115 61.2379 12.8489 65.6759 13.1529 69.5705C13.2813 71.2121 13.6778 72.8406 14.3175 74.3973C3.55529 68.7384 3.25121 58.3113 4.22652 52.3505C2.7827 49.856 3.285 46.235 3.40663 46.2067C9.51976 44.865 15.7523 47.4426 20.4306 50.3296Z" fill="#FFB459"/>
<path id="Vector_31" d="M28.0662 56.245L24.4668 59.4037C7.05537 60.1773 5.18359 49.137 5.18359 49.137L16.1507 49.9332L24.6965 53.3203C26.575 54.7977 27.7936 55.9789 28.0662 56.245Z" fill="#FFB459"/>
<path id="Vector_32" d="M28.1225 56.3034C9.78766 60.9471 3.40649 46.2065 3.40649 46.2065C15.5291 43.544 28.1225 56.3034 28.1225 56.3034Z" fill="#171766"/>
</g>
<g id="Group_11">
<path id="Vector_33" d="M57.8662 23.2241L59.1659 27.4489L60.3394 27.0697L59.5555 23.2241H57.8662Z" fill="#171766"/>
<path id="Vector_34" d="M60.7246 23.5374L58.801 24.1959L59.4317 25.8847L61.5783 26.2168L60.7246 23.5374Z" fill="#171766"/>
</g>
<g id="Group_12">
<path id="Vector_35" d="M10.8758 30.5227C4.04411 38.8459 12.0515 47.488 17.7637 54.8376C16.9416 54.7678 16.1217 54.6413 15.4054 54.4168C12.68 53.5696 -0.699536 44.0387 1.41776 35.106C2.18134 31.8737 4.0779 28.932 5.45189 25.845C6.82588 22.7561 7.43403 19.0785 5.26493 16.3293C4.47883 15.3311 3.38639 14.5367 2.33 13.7347C-0.426991 11.6459 -3.08262 9.36652 -4.72465 6.57388C-6.36668 3.77935 -6.87573 0.373451 -5.29001 -2.44372L1.57994 -2.50977H15.0428C13.3985 0.194194 13.3129 3.46612 15.6059 6.55878C18.0836 9.57786 21.0118 12.0309 20.5613 15.8047C19.8855 21.6542 14.7049 25.6167 10.8758 30.5227Z" fill="#00B6AA"/>
<path id="Vector_36" d="M50.2934 10.1439C43.9866 12.0309 34.9768 12.4082 34.3011 19.2012C33.8506 23.7298 34.3011 29.0132 29.1205 31.6548C25.0661 33.5418 20.3359 34.6739 18.3087 38.2591C15.6959 43.4557 16.6374 49.841 20.0093 54.9036C19.3201 54.9168 18.5407 54.9036 17.7636 54.8376C12.0515 47.488 4.04402 38.8459 10.8757 30.5227C14.7048 25.6167 19.8854 21.6542 20.5612 15.8047C21.0117 12.0309 18.0835 9.57786 15.6058 6.55878C13.3128 3.46612 13.3984 0.194194 15.0427 -2.50977H58.8122C59.1725 2.74343 56.2579 8.32683 50.2934 10.1439Z" fill="#7BD6AA"/>
<path id="Vector_37" d="M85.6906 -2.50977C84.6071 0.345147 83.3525 3.17742 81.3659 5.66249C79.19 8.38155 76.0208 10.676 72.2187 11.4384C69.8852 11.9063 67.448 11.7818 65.056 11.9403C62.6639 12.0988 60.1501 12.6101 58.4878 14.0593C56.6183 15.6858 56.1858 18.1652 54.4514 19.8918C50.8228 23.5109 43.4302 22.341 39.1641 25.4337C34.6277 28.7207 35.2877 35.6023 30.1138 38.1477C28.0844 39.1459 19.2458 40.8479 19.0431 45.7822C18.8764 49.8617 22.3789 54.7564 22.3789 54.7564C22.3789 54.7564 21.3653 54.8772 20.0093 54.9036C16.6374 49.841 15.6959 43.4556 18.3088 38.2591C20.336 34.6739 25.0661 33.5418 29.1205 31.6548C34.3011 29.0131 33.8506 23.7298 34.3011 19.2012C34.9768 12.4082 43.9866 12.0309 50.2934 10.1439C56.2579 8.32683 59.1726 2.74342 58.8122 -2.50977H85.6906Z" fill="#00B6AA"/>
</g>
<g id="Group_13">
<path id="Vector_38" d="M86.9948 59.4416C86.1411 63.5098 82.2444 67.3648 76.5007 69.9725C69.6893 73.0652 60.2808 74.403 50.2777 72.2613C48.4443 71.8689 46.5905 71.3594 44.73 70.7216L52.1923 53.5563C53.5978 53.8091 55.0799 54.0544 56.5778 54.2676C63.4162 55.2432 70.6263 55.5658 72.7503 53.1279C77.1133 48.1238 72.7503 38.8647 72.7503 38.8647C72.7503 38.8647 70.7412 36.8023 74.2572 33.9644C74.2572 33.9644 85.7289 44.7217 87.1097 54.9696C87.3146 56.4829 87.3011 57.9868 86.9948 59.4416Z" fill="#00B6AA"/>
<g id="Group_14">
<path id="Vector_39" d="M48.2123 52.4411L47.0185 45.8406L45.5656 45.3067L44.498 49.5409L37.8465 45.1331L36.7338 46.469L40.1823 50.4976L34.8012 49.0748L33.5466 51.258L39.8354 54.3714L31.4653 54.2695L30.9563 55.9829L49.111 62.0776L52.7487 55.9829L48.2123 52.4411Z" fill="#F1573D"/>
<path id="Vector_40" d="M31.4653 55.7566L31.7244 54.3716C31.7244 54.3716 33.265 54.7603 33.1119 55.4603C32.961 56.1604 31.4653 55.7566 31.4653 55.7566Z" fill="#171766"/>
<path id="Vector_41" d="M34.4497 50.9221L35.1885 49.5654C35.1885 49.5654 37.0625 50.5202 36.8328 51.1768C36.6076 51.8335 34.4497 50.9221 34.4497 50.9221Z" fill="#171766"/>
<path id="Vector_42" d="M37.3398 46.533L38.0989 45.7065C38.0989 45.7065 39.973 46.9142 39.313 47.4557C38.6575 47.9954 37.3398 46.533 37.3398 46.533Z" fill="#171766"/>
<path id="Vector_43" d="M45.845 45.939L47.059 46.2579C47.059 46.2579 47.3631 48.1448 46.7054 48.0184C46.0477 47.8901 45.845 45.939 45.845 45.939Z" fill="#171766"/>
</g>
<path id="Vector_44" d="M57.5373 51.524L56.5778 54.2676L50.2777 72.2613L49.1492 75.4823L43.8042 72.8481L44.73 70.7216L52.1923 53.5563L53.5235 50.4976L57.5373 51.524Z" fill="white"/>
<path id="Vector_45" d="M86.9949 59.4417C86.1412 63.5099 82.2445 67.3649 76.5007 69.9726C75.2641 67.6781 75.0299 65.0025 75.9264 62.5948C77.2575 59.0134 81.0079 56.2057 85.3303 55.2264C85.9002 55.0962 86.5061 55.0037 87.1097 54.9697C87.3147 56.483 87.3012 57.9869 86.9949 59.4417Z" fill="#FFB459"/>
</g>
</g>
<g id="Group_15">
<path id="Vector_46" d="M37.1076 42.2291L31.7266 39.2968L38.8713 28.4941L43.8041 29.2357L37.1076 42.2291Z" fill="white"/>
<path id="Vector_47" d="M38.5469 30.5338L46.453 29.7017L47.4621 30.7281L42.8896 32.7396L49.7596 36.904L48.5275 38.1645L42.9639 36.4776L46.0588 40.4307L43.8942 42.0346L38.6077 37.8098L40.9998 44.531L39.1686 45.4065L33.5825 39.3306" fill="#F1573D"/>
<path id="Vector_48" d="M39.2902 44.9348L40.8106 44.348C40.8106 44.348 39.9456 43.2121 39.1843 43.5253C38.4207 43.8386 39.2902 44.9348 39.2902 44.9348Z" fill="#171766"/>
<path id="Vector_49" d="M44.0338 41.2159L45.392 40.2517C45.392 40.2517 43.786 39.0007 43.0945 39.363C42.4008 39.7252 44.0338 41.2159 44.0338 41.2159Z" fill="#171766"/>
<path id="Vector_50" d="M48.2909 37.6911L49.0342 36.8533C49.0342 36.8533 47.1377 35.6721 46.6939 36.3495C46.2525 37.0288 48.2909 37.6911 48.2909 37.6911Z" fill="#171766"/>
<path id="Vector_51" d="M46.6602 30.6735L45.9642 29.781C45.9642 29.781 43.714 30.0489 44.0383 30.5452C44.3649 31.0415 46.6602 30.6735 46.6602 30.6735Z" fill="#171766"/>
</g>
</g>
<path id="Vector_52" d="M-9.33761 70.646L-1.81671 73.9293L3.55311 64.5796L1.15876 80.3977L-4.21106 77.5956L-12 88.819L-9.33761 70.646Z" fill="#FFB459"/>
<path id="Vector_53" d="M9.42745 74.0295L12.3917 84.0755L5.47217 85.4681L10.4996 90.542V86.1643L18.0138 85.7662L9.42745 74.0295Z" fill="#F6EF97"/>
<path id="Vector_54" d="M27.6587 49.1863L36.7 43.7651L34.6908 41.4272L27.6587 49.1863Z" fill="#00B6AA"/>
<path id="Vector_55" d="M23.6179 47.4559L28.3548 34.8984L25.109 35.389L23.6179 47.4559Z" fill="#F1573D"/>
<path id="Vector_56" d="M1.15883 45.3068L-9.58081 40.0762L-6.39586 36.2571L1.15883 45.3068Z" fill="#00B6AA"/>
<path id="Vector_57" d="M83.0148 25.0674L87.2471 29.9413L94.1193 23.5371L89.1842 36.2569L82.6611 29.8979L75.3857 32.9095L83.0148 25.0674Z" fill="#FFB459"/>
<path id="Vector_58" d="M74.7483 73.3069L89.8757 87.489L95 81.7301L74.7483 73.3069Z" fill="#FFB459"/>
<path id="Vector_59" d="M78.8162 72.4274L92.8849 74.3973V70.8027L78.8162 72.4274Z" fill="#F6EF97"/>
<path id="Vector_60" d="M73.4958 77.5957L74.8451 88.8191L82.4854 87.4888L73.4958 77.5957Z" fill="#F6EF97"/>
</g>
<path id="Vector_61" d="M40.2026 26.56C41.1991 26.56 42.0069 25.8833 42.0069 25.0485C42.0069 24.2138 41.1991 23.5371 40.2026 23.5371C39.2062 23.5371 38.3984 24.2138 38.3984 25.0485C38.3984 25.8833 39.2062 26.56 40.2026 26.56Z" fill="#FFB459"/>
<path id="Vector_62" d="M-0.508201 55.542C0.0317765 54.4717 -0.566191 53.2374 -1.8438 52.785C-3.12141 52.3327 -4.59486 52.8336 -5.13483 53.9039C-5.67481 54.9742 -5.07684 56.2085 -3.79923 56.6609C-2.52162 57.1132 -1.04818 56.6123 -0.508201 55.542Z" fill="#171766"/>
</g>
</g>
<defs>
<clipPath id="clip0_24_1620">
<rect width="107" height="94.4103" fill="white" transform="translate(-12 -2.50977)"/>
</clipPath>
</defs>
</svg>
